# xmcd
# 
# Track frame offsets:
#     150
#     29378
#     53496
#     73945
# 
# Disc length: 1293
# 
# Revision: 1
# Processed by: cddbd v1.5.2PL0 Copyright (c) Steve Scherf et al.
# Submitted via: fre:ac v1.0.17
# 
DISCID=30050b04
DTITLE=堂本　剛 - FUNKがしたいんだ　どしても
DYEAR=2014
DGENRE=
TTITLE0=FUNKがしたいんだ　どしても
TTITLE1=HEIAN FUNK
TTITLE2=恋にも愛にも染まるような赤
TTITLE3=FUNKY PANTIES
EXTD=
EXTT0=
EXTT1=
EXTT2=
EXTT3=
PLAYORDER=
